:SAMPLES-PER-SECOND 30
:FULLY-SPECIFIED
:DEGREES
440
root  7.35815 32.3561 -28.9191 34.6047 -67.8461 -16.856
LeftUpLeg  -24.1617 19.5591 -13.5405
LeftLeg  52.9377 -4.58747 -5.31241
LeftFoot  1.57257 0.00418223 -0.304745
LeftToes  -30.8942 1.85109e-006 5.31342e-008
Spine  7.33799 -4.42897 4.38289
Spine1  13.5348 -10.0907 9.28437
RightShoulder  0.0391495 4.51676 4.12994
RightArm  -44.7136 -24.6362 56.1265
RightForeArm  27.1698 51.5275 12.8558
RightHand  2.03352 -15.8593 -14.1469
LeftShoulder1  0.0937579 -2.88838 -3.30611
LeftArm  -10.9546 -7.38797 -33.1381
LeftForeArm  37.6898 -61.0539 -18.6677
LeftHand  -0.0994081 -5.41818 1.7329
HEad  -43.628 54.4589 -38.6518
RightUpLeg  -44.3718 -9.09307 16.3116
RightLeg  41.4642 25.959 18.7465
RightFoot  1.23871 -0.00249098 0.60763
RightToes  -35.8655 -0.186326 -0.290596
441
root  6.88932 31.784 -27.3705 25.8124 -68.0986 -10.289
LeftUpLeg  -26.8948 23.2357 -13.5277
LeftLeg  67.211 -8.03975 -15.7021
LeftFoot  9.75056 0.273501 -3.20568
LeftToes  -37.2637 1.85109e-006 5.31342e-008
Spine  7.22477 -4.10863 3.65278
Spine1  13.5893 -9.22473 7.71204
RightShoulder  0.0206158 3.67106 4.10965
RightArm  -45.31 -28.3689 56.0995
RightForeArm  28.1237 55.5955 14.974
RightHand  2.08744 -15.9224 -14.4685
LeftShoulder1  0.0741557 -2.46845 -3.33314
LeftArm  -12.3674 -5.82002 -30.6888
LeftForeArm  35.3028 -51.9659 -13.0536
LeftHand  -0.116712 -4.65278 2.50607
HEad  -41.5444 53.499 -37.907
RightUpLeg  -40.8951 -1.74837 8.86662
RightLeg  41.7597 15.1568 11.5612
RightFoot  -6.61835 -0.154219 -2.28944
RightToes  -27.4181 -0.126552 -0.233627
442
root  6.52529 31.6828 -25.9009 22.5247 -65.1226 -7.95163
LeftUpLeg  -32.2234 23.8965 -10.1777
LeftLeg  79.1341 -5.62149 -20.7049
LeftFoot  10.7082 0.401581 -4.28295
LeftToes  -41.6554 1.85109e-006 5.31342e-008
Spine  7.19368 -3.82701 4.11424
Spine1  13.7788 -8.46094 8.21747
RightShoulder  0.0273563 2.77584 6.10597
RightArm  -45.4722 -28.662 53.3545
RightForeArm  27.0206 53.9941 14.0883
RightHand  2.25115 -15.8542 -15.6868
LeftShoulder1  0.0440258 -2.71041 -3.60172
LeftArm  -16.8669 -4.14984 -30.5394
LeftForeArm  37.3998 -44.7194 -10.0592
LeftHand  -0.235736 -4.40571 5.76171
HEad  -42.4124 50.4708 -38.3386
RightUpLeg  -40.3741 1.19237 4.68535
RightLeg  45.4348 9.37546 8.24428
RightFoot  -9.74956 -0.214903 -2.14197
RightToes  -31.114 -0.151667 -0.259633
443
root  6.3114 31.8926 -24.3654 18.777 -61.9565 -3.3002
LeftUpLeg  -38.8277 24.4294 -9.20583
LeftLeg  83.8587 -2.35448 -13.3864
LeftFoot  2.58345 0.0152338 -0.675596
LeftToes  -35.0463 1.85109e-006 5.31342e-008
Spine  6.78572 -3.96407 4.474
Spine1  13.1793 -8.52328 8.55441
RightShoulder  0.0266096 2.57998 6.8856
RightArm  -45.6718 -26.8182 51.4481
RightForeArm  27.6027 49.4181 11.9077
RightHand  2.36886 -15.7635 -16.6116
LeftShoulder1  0.0170949 -2.10374 -4.43879
LeftArm  -23.1819 -0.471094 -32.7873
LeftForeArm  39.6442 -38.6213 -8.08848
LeftHand  -0.429639 -4.41354 10.7614
HEad  -42.8588 47.9611 -39.0921
RightUpLeg  -38.9131 -2.46047 1.10482
RightLeg  45.162 9.2209 8.03464
RightFoot  -10.9543 -0.261032 -2.34439
RightToes  -35.2712 -0.181852 -0.286882
444
root  6.21627 32.1858 -22.8079 13.783 -62.0475 3.15392
LeftUpLeg  -45.8086 28.1165 -10.9833
LeftLeg  82.3863 -1.06008 -5.32639
LeftFoot  -0.232699 -4.25737e-006 -0.00210548
LeftToes  -24.2894 1.85109e-006 5.31342e-008
Spine  6.42103 -3.12523 3.76677
Spine1  12.6159 -6.67109 7.15558
RightShoulder  0.0241972 2.94012 6.89199
RightArm  -46.0484 -25.324 51.2752
RightForeArm  29.9071 46.085 10.5701
RightHand  2.28304 -15.1076 -16.7138
LeftShoulder1  0.00814402 -1.72926 -5.54872
LeftArm  -25.9546 4.54369 -34.3563
LeftForeArm  38.2054 -33.1652 -6.60394
LeftHand  -0.429244 -3.3835 14.1149
HEad  -42.1137 45.6223 -38.7877
RightUpLeg  -37.0024 -3.44892 -4.24102
RightLeg  42.8189 9.18009 7.37278
RightFoot  -11.1938 -0.26096 -2.28507
RightToes  -40.1691 -0.219835 -0.316075
445
root  6.08244 32.4696 -21.1843 9.57764 -64.4467 7.85301
LeftUpLeg  -50.4912 33.3608 -12.2337
LeftLeg  75.2431 -0.419121 -1.27766
LeftFoot  -1.46585 0.000186057 0.014535
LeftToes  -18.6742 1.85109e-006 5.31342e-008
Spine  6.20296 -1.43742 2.86309
Spine1  12.3361 -3.12598 5.39954
RightShoulder  0.0251476 3.36256 7.11255
RightArm  -44.1801 -23.8247 50.9216
RightForeArm  29.6317 43.6349 9.69055
RightHand  2.32005 -14.9727 -17.1424
LeftShoulder1  -0.000412067 -0.826677 -6.61358
LeftArm  -24.6278 10.6378 -35.4748
LeftForeArm  37.0356 -30.313 -5.90375
LeftHand  -0.316048 -2.77654 12.6468
HEad  -40.0232 43.8578 -36.6805
RightUpLeg  -35.357 -3.13962 -8.65916
RightLeg  41.5574 9.55615 7.33594
RightFoot  -10.3163 -0.229342 -2.1628
RightToes  -43.141 -0.244048 -0.332169
446
root  5.86591 32.6118 -19.4763 6.55827 -66.2139 11.2166
LeftUpLeg  -53.2646 36.95 -12.5072
LeftLeg  64.1055 -0.715098 -1.2721
LeftFoot  -0.591097 -0.000712085 -0.0179136
LeftToes  -20.4605 1.85109e-006 5.31342e-008
Spine  5.9267 -0.0430021 2.26371
Spine1  11.8248 -0.21592 4.21431
RightShoulder  0.0342415 3.57366 7.26568
RightArm  -40.0135 -21.5568 50.0587
RightForeArm  29.1912 42.318 9.24824
RightHand  2.27605 -14.6196 -17.2283
LeftShoulder1  -0.00369359 0.131685 -7.25292
LeftArm  -23.1339 19.5788 -37.4073
LeftForeArm  38.1674 -30.785 -6.0156
LeftHand  -0.255278 -2.67694 10.5501
HEad  -38.4384 42.2635 -34.8883
RightUpLeg  -34.3562 -6.82714 -11.0255
RightLeg  41.6123 9.84677 7.56997
RightFoot  -9.08179 -0.187079 -1.97784
RightToes  -47.1833 -0.278256 -0.352001
447
root  5.5663 32.5058 -17.6835 6.01559 -66.4507 12.0916
LeftUpLeg  -54.6732 38.7395 -11.8631
LeftLeg  50.5909 -1.45276 -1.55999
LeftFoot  1.51736 0.00133821 -0.116299
LeftToes  -24.2145 1.85109e-006 5.31342e-008
Spine  5.63869 0.682734 2.15838
Spine1  11.1904 1.29107 3.95509
RightShoulder  0.050155 4.10208 6.54031
RightArm  -35.6432 -18.6687 49.8736
RightForeArm  29.2598 43.1359 9.52072
RightHand  2.31918 -14.5745 -17.6117
LeftShoulder1  0.00115805 2.0008 -7.68923
LeftArm  -21.8703 30.2576 -40.9625
LeftForeArm  39.772 -32.3168 -6.38876
LeftHand  -0.234868 -2.02345 12.9144
HEad  -38.287 40.9342 -34.8007
RightUpLeg  -34.0016 -14.0942 -11.4375
RightLeg  42.9651 8.77055 7.08474
RightFoot  -8.34506 -0.147981 -1.65082
RightToes  -50.0771 -0.303562 -0.364693
448
root  5.23764 32.1302 -15.7706 7.25262 -66.7237 10.183
LeftUpLeg  -53.6415 40.0996 -9.27783
LeftLeg  35.6007 -1.11362 -0.698176
LeftFoot  2.37594 0.00320708 -0.154664
LeftToes  -25.2578 1.85109e-006 5.31342e-008
Spine  5.45883 1.63191 2.06559
Spine1  10.6802 3.20107 3.82473
RightShoulder  0.0737495 4.72017 5.24383
RightArm  -33.3906 -15.6749 52.2124
RightForeArm  28.2395 45.5987 10.3899
RightHand  2.60287 -15.0095 -19.191
LeftShoulder1  0.0173786 3.14676 -7.14519
LeftArm  -25.7381 42.2416 -46.4733
LeftForeArm  41.8899 -33.7144 -6.7398
LeftHand  -0.249749 -1.89926 14.6644
HEad  -38.2397 39.359 -34.2557
RightUpLeg  -32.3561 -17.7154 -12.8805
RightLeg  44.052 8.37814 7.03415
RightFoot  -8.41823 -0.145676 -1.6018
RightToes  -53.8244 -0.337226 -0.379202
449
root  4.78534 31.5598 -13.7242 10.8916 -66.0496 4.2795
LeftUpLeg  -49.2534 39.9219 -2.7934
LeftLeg  20.4273 2.79125 0.837023
LeftFoot  3.5509 -0.00155702 0.0502218
LeftToes  -23.0945 1.85109e-006 5.31342e-008
Spine  5.25259 3.04523 2.37407
Spine1  10.0942 5.96738 4.67861
RightShoulder  0.10156 5.5186 3.41927
RightArm  -33.0085 -14.2107 56.7342
RightForeArm  29.9986 50.5925 12.424
RightHand  2.99348 -15.3973 -21.5007
LeftShoulder1  0.0435062 4.05975 -5.82359
LeftArm  -38.4687 52.332 -54.7528
LeftForeArm  45.8772 -33.1191 -6.58176
LeftHand  -0.113361 -0.877182 14.4707
HEad  -36.0036 37.3159 -31.7205
RightUpLeg  -26.3564 -15.6928 -15.3939
RightLeg  41.2314 7.51506 5.71831
RightFoot  -9.6717 -0.162622 -1.54457
RightToes  -58.2936 -0.378508 -0.393583
